<?xml version="1.0" encoding="UTF-8"?>
<svg version="1.0" 
    xmlns="http://www.w3.org/2000/svg" width="50px" height="39px" viewBox="0 0 128.000000 128.000000" preserveAspectRatio="xMidYMid meet">
    <title>Home</title>
    <desc>Home page</desc>
    <g transform="translate(0.000000,128.000000) scale(0.100000,-0.100000)" fill="#000000" stroke="none">
        <path d="M495 1087 c-64 -21 -97 -42 -141 -89 -57 -59 -86 -120 -92 -196 -4
-47 -9 -65 -21 -69 -55 -17 -81 -32 -120 -68 -120 -109 -123 -285 -8 -403 78
-80 92 -82 535 -82 236 0 402 4 424 10 57 16 119 69 150 129 57 108 26 246
-71 319 -24 18 -56 36 -71 39 -23 4 -29 12 -34 43 -7 47 -61 108 -103 116 -24
5 -32 14 -46 54 -23 65 -95 143 -163 176 -66 32 -175 42 -239 21z m165 -47
c94 -26 178 -112 202 -207 9 -38 14 -43 40 -43 59 0 107 -59 95 -118 -5 -26
-3 -28 45 -40 104 -24 164 -105 156 -212 -6 -78 -39 -129 -109 -164 l-53 -26
-385 0 c-385 0 -386 0 -436 24 -90 42 -135 112 -135 208 1 68 27 125 79 169
38 33 97 59 133 59 12 0 16 18 20 83 3 68 9 93 31 130 67 114 198 170 317 137z"/>
        <path d="M523 709 c-64 -19 -115 -119 -60 -119 16 0 26 9 34 30 16 41 51 52
161 48 84 -3 96 -5 113 -27 10 -13 19 -32 19 -43 0 -17 -2 -18 -16 -8 -12 11
-18 10 -32 -3 -15 -16 -13 -20 31 -64 l47 -48 47 48 c45 44 47 48 30 64 -13
13 -19 15 -29 5 -19 -19 -28 -14 -28 17 0 40 -43 88 -88 101 -45 12 -185 12
-229 -1z"/>
        <path d="M410 495 c-42 -42 -43 -46 -27 -62 13 -13 20 -14 29 -5 18 18 28 15
28 -8 0 -34 28 -79 60 -95 41 -21 239 -21 280 0 52 27 82 115 40 115 -11 0
-23 -8 -27 -17 -3 -10 -15 -28 -26 -40 -19 -21 -29 -23 -127 -23 -98 0 -108 2
-128 23 -26 28 -32 67 -6 47 12 -11 18 -10 32 3 15 16 13 20 -28 62 -24 25
-47 45 -50 45 -3 0 -26 -20 -50 -45z"/>
    </g>
</svg>